# xmcd CD database file
#
# Track frame offsets:
#	150
#	33977
#	60214
#	87567
#	116925
#	143842
#	167082
#	191614
#	219637
#	248847
#	283503
#
# Disc length: 4286 seconds
#
# Revision: 0
# Processed by: cddbd v1.5.2PL0 Copyright (c) Steve Scherf et al.
# Submitted via: CDex 1.51
#
DISCID=9f10bc0b
DTITLE=Nicholas Hoffman - Nick's Tricks
DYEAR=1997
DGENRE=Jazz
TTITLE0=Love For Sale
TTITLE1=Four
TTITLE2=Nick's Tricks
TTITLE3=What Is This Thing Called Love?
TTITLE4=Ernie's Assignment
TTITLE5=Good Morning Heartache
TTITLE6=You'd Be So Nice To Come Home To
TTITLE7=Moment's Notice
TTITLE8=Take Five
TTITLE9=Walkin'
TTITLE10=Poinciana
EXTD=YEAR: 1997
EXTT0=
EXTT1=
EXTT2=
EXTT3=
EXTT4=
EXTT5=
EXTT6=
EXTT7=
EXTT8=
EXTT9=
EXTT10=
PLAYORDER=
